<svg version="1" xmlns="http://www.w3.org/2000/svg" width="933.333" height="933.333" viewBox="0 0 700.000000 700.000000"><path d="M348 8.4c-13.5 3.8-23.5 13.3-28 26.6-7.1 20.9 6.2 44.7 28 50.3 19.3 5 39.9-6 47-25 2.9-7.9 3-18.8 0-26.6-2.2-5.8-7.8-14.1-11.1-16.5-1-.7-2.4-1.8-3.1-2.5-6.4-5.9-22.9-9.1-32.8-6.3zM226.5 93.9c-12 5.2-28.5 13.6-35.2 17.7-15.2 9.4-30.5 20.2-40.3 28.4-54.8 45.7-91.6 105.8-106.6 174-2.8 12.4-2.8 12.5-3.9 21.5-.4 3.3-.9 6.9-1.1 8-1.8 8.6-2.5 53.2-1 66.5 1.3 11.9 3.6 28.2 4.1 29 .2.3.6 2.5 1 4.8 1.3 9 11.2 41.8 12.7 42.4.4.2 5.5-4.4 11.4-10.2l10.7-10.5-3.2-13c-3.2-13.5-6-27.2-6.6-33.4-.2-2-.8-6.8-1.2-10.6-1-8.7-1.1-45.3-.1-55.5 1-11 2.9-23.4 4.2-27.8.3-.9.7-3.3 1-5.2.4-1.9 1.1-5.3 1.6-7.5 1.1-4.3 1.1-4.3 3.5-12.5.9-3 1.7-6 1.8-6.5.2-1 2-5.8 3.7-10 .4-1.1 2.2-5.7 4-10.2 6.9-17.7 18.9-39.5 31.5-57.2 17.1-24 35.3-42.7 61.6-63.5 8.4-6.6 31.3-20.6 43.8-26.7 8-4 14.8-7.4 15-7.6.5-.4 1.4-30.4.9-30.2-.2 0-6.1 2.6-13.3 5.8zM466.6 101.4c.1 7.2.3 14.1.3 15.3.1 1.3 1 2.4 2.4 2.9 6.9 2.2 28.2 13.7 42.2 22.9C573.7 183.2 617.7 247 633.9 320c2.1 9.6 2.5 12 3.5 20 .3 2.5.8 5.6 1.1 7 2.4 12 2.3 47.9-.1 67-1.1 8.7-1.3 10.5-2.4 16-.6 3-1.3 6.6-1.5 8-.9 5.3-1.7 8.8-4.2 18l-2.5 9.5 11.3 10.8 11.3 10.9 3.3-9.8c3.4-10.1 9.7-34.7 10.8-41.9.3-2.2.8-5.4 1-7 .3-1.7.7-4.2.9-5.7 1.6-9.8 2.1-21.5 2-44.3-.2-27.2-1.7-42.8-6.4-64.3-2.2-10.4-9.2-34.5-11.3-39.5-.8-1.7-2.9-7-4.7-11.7-10.7-27.9-33.5-64.7-54.5-88-21.3-23.6-52.3-49.7-72-60.5-4.6-2.6-7.1-4.1-8.5-5.1-2.7-2.1-24-12.5-34.4-16.8l-10.3-4.3.3 13.1zM312.3 102.1c-13.8 1.7-25.9 13.3-29.2 28-.5 2.3-1 12.8-1.1 23.3l-.1 19.1 75.2-.2c48.7-.1 75.4-.5 75.8-1.1.3-.6.5-9.6.4-20.1-.1-15.1-.5-20.2-1.9-24.3-3.4-10.5-11.4-19.1-21.3-22.9-5.4-2.1-7.1-2.2-49.1-2.3-23.9-.1-45.8.2-48.7.5zM219.5 280.9c-1.1.5-2.8 1.7-3.7 2.8-4.6 5-4.5 3.9-4.4 92.8.2 80 .3 84.2 2.1 87.7 3.6 7.3-7 6.8 144.5 6.8 151.6 0 140.1.6 144-7 2-3.8 2-5.8 2-88.7 0-94.8.4-89.9-7-93.5-3.3-1.7-12-1.8-139.5-1.7-74.8 0-136.9.4-138 .8zm76.3 77.4c30.6 20.5 57.2 37.8 58.9 38.5 2 .6 4.4.8 6.1.3 1.5-.5 28-17.7 58.7-38.3 30.8-20.6 56.5-37.7 57-38 1.5-.9 1.3 120.1-.2 121-.6.4-54.6.7-120 .7l-118.8-.1-.1-61.2c-.1-50.9.2-61.2 1.3-60.8.7.3 26.4 17.3 57.1 37.9zM117.1 482.2c-12.3 1.9-24.6 11.1-29.7 22.2-10.6 23.1 1 48 25.9 55.6 4.7 1.5 14.3 1.4 19.9-.1 26.5-7.1 38.3-39.4 22.5-61.6-5.8-8.1-17-14.9-26.4-15.9-2.6-.3-5.2-.6-5.8-.8-.5-.1-3.4.1-6.4.6zM583 482.8c-12.5 1.9-24.2 10.7-30.1 22.8-12.3 24.9 6.1 55 34.2 56 20.6.8 38.1-14 40.9-34.3 3-22.6-13.9-43.1-36.8-44.5-3.1-.2-6.8-.2-8.2 0zM72.3 578.4c-5.1 1.9-13 7.4-16.1 11.4-7.3 9.3-8.5 14.3-8.6 38.4-.1 19.2-.1 19.8 1.9 19.9 13.8.4 149.7 0 150.2-.4.8-.8.7-32-.1-37.9-2.1-15.5-11.8-27-26.5-31.7-4.9-1.6-96.4-1.3-100.8.3zM536.7 579c-7 2.7-13.1 7.7-17.3 14.2-2.1 3.2-3.9 6.4-4.1 7-1.9 8.2-2.3 14.2-2.1 29.4l.3 17.9 74.5.1c41 0 75-.3 75.5-.7.6-.4.9-8 .9-19.6-.1-14.6-.6-20.3-1.9-24.9-3.3-11.4-11.5-20-22.7-23.9-3.6-1.2-12.4-1.4-51.3-1.4-43.4 0-47.4.2-51.8 1.9zM460 641.1c-11.4 5.1-39.2 13.3-52 15.4-1.9.3-5.7 1-8.5 1.5-2.7.5-7.9 1.2-11.5 1.5-3.6.3-8.4.8-10.6 1.1-6.1.8-37.8.8-45.4 0-10.2-1-23.4-2.6-25-3.1-.8-.2-3.5-.7-6-1-7.1-1-31.5-7.4-40.6-10.6-4.5-1.6-8.7-2.9-9.2-2.9-1.2 0-20.5 19.4-20.4 20.5.2 1.8 32.6 13 49.2 17 17.4 4.2 34.2 6.9 50.5 8.1 16.5 1.2 46.7.6 58.9-1.1 2-.3 5.3-.7 7.4-1 2-.3 5.5-.8 7.7-1.1 14.7-1.8 43.4-9.8 62-17.2 16.2-6.4 18.5-7.5 18.5-8.2 0-.8-19.4-21-20.1-20.9-.2 0-2.4.9-4.9 2z"/></svg>